<?xml version="1.0" encoding="utf-8" ?><svg xmlns="http://www.w3.org/2000/svg" xmlns:xlink="http://www.w3.org/1999/xlink" width="1024" height="1024" viewBox="0 0 1024 1024"><path fill="#90151F" d="M617.299 457.065C620.03 457.629 622.441 458.701 625.04 459.689C643.022 466.527 660.704 474.064 678.532 481.277C730.357 501.814 781.725 523.484 832.601 546.272C848.392 553.403 864.58 560.464 880.099 568.094C870.695 568.686 859.011 568.15 849.401 568.08C834.704 567.945 820.006 568.006 805.311 568.262C804.666 574.251 805.182 592.968 805.166 600.147L805.056 711.045C805.046 717.026 805.541 763.786 804.245 765.249C798.276 765.785 789.768 765.404 783.502 765.411C774.1 765.423 764.223 765.636 754.868 765.343C754.112 757.428 754.837 736.459 754.822 727.25L754.998 666.211C754.987 652.822 755.64 631.812 752.426 619.341C749.739 608.675 744.279 598.909 736.6 591.034C724.534 578.525 709.414 571.64 692.003 571.327C674.953 571.028 658.484 577.524 646.231 589.384C625.744 609.449 627.168 629.529 627.432 655.674C627.606 672.885 627.75 690.787 627.535 707.997L589.569 707.919C588.898 702.069 589.174 694.965 589.2 688.984C589.255 679.489 589.258 669.995 589.209 660.501L589.144 560.876L589.12 511.094C589.101 503.639 588.683 489.694 589.63 482.882C592.918 479.146 599.468 473.386 603.245 469.823C607.008 466.272 613.333 460.043 617.299 457.065Z"/><path fill="#90151F" d="M405.416 455.568L407.964 455.542C411.143 456.965 429.209 475.669 432.227 479.153C432.671 484.404 432.333 494.567 432.322 500.207L431.99 548.442L432.464 707.969L394.522 707.83C394.02 701.915 394.331 692.236 394.345 686.004L394.385 646.678C394.396 627.282 395.272 615.714 384.121 598.721C372.628 580.556 353.89 572 332.743 571.586C303.911 570.669 276.867 593.687 271.061 621.584C268.304 634.838 269.356 652.397 269.399 666.292L269.441 725.455C269.482 738.502 269.747 752.46 269.398 765.426C255.986 766.117 234.201 765.736 220.602 765.452C219.91 758.31 220.272 749.616 220.26 742.28L220.184 702.262L220.112 568.217C195.424 567.097 168.311 569.182 143.35 568.325C149.843 564.737 161.593 560.004 168.644 556.936L213.463 537.273C277.138 509.318 341.127 482.081 405.416 455.568Z"/><defs><linearGradient id="gradient_0" gradientUnits="userSpaceOnUse" x1="421.11868" y1="666.09619" x2="554.08112" y2="508.67419"><stop offset="0" stop-color="#FFFEFF" stop-opacity="0"/><stop offset="1" stop-color="#FEFEFE" stop-opacity="0.070588239"/></linearGradient></defs><path fill="url(#gradient_0)" d="M453.5 524.25L450.175 520.828C451.185 519.248 451.87 518.429 451.719 516.778C448.959 515.447 446.797 517.651 443.583 518.539C441.561 516.464 442.497 508.157 442.504 505.193C442.519 499.238 442.178 483.396 437.946 479.142C437.517 477.495 440.707 474.393 440.721 469.911C443.903 466.369 450.869 471.553 453.579 473.034C455.31 472.716 454.75 472.83 456.156 470.963L456.953 471.274C457.569 472.832 457.553 472.713 457.384 474.379L455.803 474.538C455.285 475.551 455.262 478.819 454.948 480.428C454.251 480.904 453.545 481.22 452.758 481.52C450.921 486.839 449.463 496.418 451.053 501.887C452.322 503.208 452.254 503.269 454.044 503.945C459.414 501.939 457.305 488.959 457.623 483.746C458.305 487.626 458.024 498.108 458 502.5L482.572 502.476C486.193 502.474 492.448 502.298 495.781 502.639L495.883 504.134C497.453 504.63 495.139 503.668 498.172 502.493L497.919 503.57C498.929 505.083 499.079 505.497 500.643 506.502C502.384 506.562 506.008 506.223 506.838 506.985C507.235 515.718 505.592 516.666 509.845 524.295C509.381 527.713 506.971 533.911 507.426 535.39L507.968 535.57C511.668 529.592 508.649 523.346 511.936 522.337C513.573 523.105 513.613 523.19 514.952 524.279C515.657 523.374 516.408 522.512 517.159 521.645L515.457 520.991C516.429 520.755 516.723 520.724 517.723 520.641L517.899 520.118C516.082 519.923 511.952 520.004 510.814 519.709L510.702 519.185L513.351 519.494L513.821 519.053L512.609 517.632L511.041 517.759C510.286 516.829 510.535 517.373 510.603 515.966L511.782 516.922C512.478 513.759 510.928 506.954 508.749 504.984C510.237 504.809 511.22 504.741 512.721 504.681L512.753 504.047C510.668 503.548 510.363 503.437 508.258 503.478C508.584 503.111 509.933 501.24 509.9 500.971C509.196 495.21 508.794 489.463 508.642 483.66C507.685 484.66 507.405 488.015 507.207 489.491C506.429 489.082 506.88 489.217 505.826 489.207C505.302 489.796 505.165 489.8 504.898 490.562C504.644 488.784 504.635 486.267 504.566 484.412C503.576 482.146 504.593 480.713 503.542 478.379C502.025 478.88 502.383 478.952 501.229 480.592C501.172 478.383 501.164 474.832 503.419 473.851C505.471 474.52 505.548 476.329 507.026 476.666C507.15 475.486 507.145 475.26 507.507 474.144C509.434 474.62 510.001 477.813 513.876 479.346C518.852 479.343 518.597 474.152 521.598 472.168L522.482 472.391C524.073 474.33 524.454 476.905 524.998 479.382C521.547 495.588 523.376 522.316 523.103 539.759C522.884 543.505 523.654 558.365 522.411 559.849L520.696 559.555C518.107 561.958 512.75 564.456 509.326 565.485C507.551 564.966 506.698 564.314 505.456 564.912L504.992 566.44L504.081 566.386C503.628 565.678 503.842 565.749 503.857 564.603L503.866 564.599L503.332 565.073C502.697 565.643 502.238 566.098 501.646 566.702C502.765 567.836 502.438 567.975 503.447 568.014L503.539 566.135L504.234 566.403C504.467 567.093 503.023 576.41 502.618 577.468C503.848 578.959 506.224 583.165 506.883 583.61L506.98 583.882L506.4 584.415C499.284 585.003 494.341 586.408 487.956 589.374C488.239 587.604 489.793 580.572 486.279 580.656C482.698 580.743 477.488 581.028 474.888 583.632C467.785 589.987 459.738 603.346 457.477 612.526C457.187 613.701 457.821 614.693 458.406 615.491C460.654 616.494 461.243 616.035 463.976 617.21C456.156 641.756 466.327 665.469 489.567 676.828C501.352 682.588 518.788 682.288 530.933 677.68C556.459 667.993 568.365 639.648 558.816 614.274L560.782 614.87C568 612.442 560.52 597.646 564.975 591.829L565.234 595.13L565.228 594.567L565.944 594.256C567.508 587.363 566.72 582.893 567.013 576.249C569.665 578.227 566.792 599.862 569.36 602.833L570.931 602.727C573.609 599.031 572.545 587.775 573.992 584.922C575.919 585.752 576.581 589.724 579.293 589.909C580.418 588.136 580.099 586.04 580.64 583.649L581.143 583.411C582.189 585.625 581.938 591.537 582.214 594.224C583.635 608.064 582.967 622.246 580.965 635.97C580.734 637.551 577.163 637.805 576.451 638.791C575.302 640.385 575.481 642.489 574.259 644.256C573.316 642.264 572.378 639.402 569.85 640.213C566.279 641.358 570.1 650.35 567.571 653.775C566.8 653.895 564.259 654.267 564.246 654.983C564.097 663.326 565.455 665.93 559.285 672.902C558.333 673.978 559.012 675.28 559.401 676.654C556.706 680.795 550.81 679.547 546.649 680.639C545.299 680.993 544.335 683.659 542.828 683.941C540.738 684.332 538.293 683.825 536.479 684.839C536.15 685.92 536.089 686.008 535.53 686.999C530.062 688.845 533.414 692.937 531.686 694.023C528.001 696.339 519.914 695.725 515.36 697.352C510.697 699.018 508.646 706.806 504.397 707.461C501.029 706.128 494.172 700.902 491.906 700.57C487.765 699.961 485.201 700.004 480.201 698.104C475.453 696.301 472.03 697.713 466.591 693.8C461.423 690.081 459.729 686.918 455.669 682.348C452.2 678.934 446.052 684.331 443.378 684.562C440.859 678.37 441.866 667.733 441.353 661.049C440.936 655.715 439.431 650.155 439.474 644.805C439.575 639.276 440.351 633.9 440.576 628.352C440.906 619.254 439.625 610.387 439.481 601.295C439.405 596.5 441.298 591.973 441.35 587.672C441.555 570.776 441.869 553.756 444.145 536.993C444.554 533.979 443.94 527.979 444.935 525.479C445.962 529.618 444.739 548.574 446.153 554.713C447.797 559.083 449.416 562.427 450.664 567.002C451.467 569.95 450.421 575.983 453.117 576.444C454.042 574.042 453.503 530.168 453.5 524.25ZM454.647 587.78C454.301 585.71 454.231 584.907 454.224 582.808L453.62 588.624C453.571 586.537 453.694 579.05 453.179 577.639C451.949 576.959 448.319 575.383 447.615 577.4C446.196 581.462 444.864 590.465 448.125 593.707C451.465 594.509 452.592 592.119 454.309 589.583L456.095 589.4L455.706 588.839L455.266 588.768L454.647 587.78ZM452.077 511.99L454.792 511.372C456.586 508.503 451.972 503.211 448.993 502.884C441.841 504.825 445.361 512.355 452.077 511.99ZM521.368 516.271L521.842 516.314C522.207 514.368 522.833 512.062 522.094 510.442L521.542 510.436L521.112 511.823C520.178 511.206 520.02 511.014 519.219 510.217L519.497 510.879C518.593 509.776 518.866 509.805 517.545 509.304C515.655 511.423 513.959 513.54 516.43 516.158C517.408 517.194 518.955 516.909 520.274 517.197L521.368 516.271ZM521.745 495.625C521.718 492.543 521.534 489.508 522.111 486.499L521.735 485.55C520.765 486.827 521.323 488.097 520.83 489.726C520.765 488.572 520.707 486.361 520.344 485.349C519.448 490.99 515.429 489.876 517.864 494.259L518.493 494.542L519.232 493.225L519.584 494.945C520.597 495.383 520.668 495.436 521.745 495.625Z"/><path fill="#90151F" d="M455.007 525.512C470.526 525.767 486.048 525.718 501.564 525.368C501.682 537.001 501.699 548.635 501.615 560.269C483.901 561.968 468.535 572.502 457.684 586.109C456.903 587.089 456.312 587.734 455.706 588.839L455.266 588.768L454.647 587.78C456.324 568.64 454.278 545.115 455.007 525.512Z"/><path fill="#FDFDFC" fill-opacity="0.30980393" d="M517.545 509.304C518.866 509.805 518.593 509.776 519.497 510.879L519.219 510.217C520.02 511.014 520.178 511.206 521.112 511.823L521.542 510.436L522.094 510.442C522.833 512.062 522.207 514.368 521.842 516.314L521.368 516.271L520.274 517.197C518.955 516.909 517.408 517.194 516.43 516.158C513.959 513.54 515.655 511.423 517.545 509.304Z"/><path fill="#FDFDFC" fill-opacity="0.30588236" d="M520.344 485.349C520.707 486.361 520.765 488.572 520.83 489.726C521.323 488.097 520.765 486.827 521.735 485.55L522.111 486.499C521.534 489.508 521.718 492.543 521.745 495.625C520.668 495.436 520.597 495.383 519.584 494.945L519.232 493.225L518.493 494.542L517.864 494.259C515.429 489.876 519.448 490.99 520.344 485.349Z"/><path fill="#2F9ADC" d="M524.998 479.382C530.267 456.941 545.409 437.255 562.205 422.138C593.584 393.896 611.452 392.995 651.045 394.575C651.073 410.191 650.82 426.853 651.287 442.383C626.928 441.774 607.218 434.408 588.076 453.607C575.911 465.808 565.885 477.049 565.88 494.853C565.874 519.79 566.157 544.432 565.985 569.332C565.952 574.083 566.782 586.678 566.042 590.181C558.157 577.766 549.191 570.054 535.855 564.071L532.335 562.69L531.403 562.366C528.651 561.362 526.209 560.75 523.382 560.011C523.474 553.563 523.524 546.136 523.103 539.759C523.376 522.316 521.547 495.588 524.998 479.382Z"/><path fill="#F3751E" d="M508.2 332.431C535.793 330.502 559.76 351.228 561.832 378.81C563.904 406.393 543.302 430.466 515.731 432.68C487.957 434.911 463.668 414.125 461.581 386.341C459.494 358.556 480.405 334.375 508.2 332.431Z"/><path fill="#2F9ADC" d="M506.4 584.415C523.25 584.19 535.194 586.694 548.129 598.951C550.131 600.848 553.462 605.887 554.721 607.015C555.449 608.396 557.965 613.441 558.816 614.274C568.365 639.648 556.459 667.993 530.933 677.68C518.788 682.288 501.352 682.588 489.567 676.828C466.327 665.469 456.156 641.756 463.976 617.21C464.901 614.768 466.156 612.092 467.221 609.679C467.962 608.921 470.994 604.27 471.763 603.143C475.797 597.23 480.406 594.295 486.268 590.378L487.956 589.374C494.341 586.408 499.284 585.003 506.4 584.415ZM495.806 641.653C498.504 645.954 501.459 649.143 506.504 650.609C510.278 651.992 513.925 651.866 517.634 650.352C518.51 650.043 519.466 649.692 520.295 649.279C524.735 647.016 528.07 643.053 529.541 638.291C531.434 632.106 530.144 627.83 527.198 622.527C524.126 617.973 520.593 615.11 515.058 614.048C510.246 613.098 505.256 614.189 501.28 617.06C498.919 618.767 496.27 621.782 495.129 624.492C492.893 628.887 492.325 632.989 493.957 637.753C494.168 638.357 494.399 638.955 494.649 639.544C494.924 640.074 495.477 641.235 495.806 641.653Z"/><defs><linearGradient id="gradient_1" gradientUnits="userSpaceOnUse" x1="502.86826" y1="647.91089" x2="519.26227" y2="616.41736"><stop offset="0" stop-color="#FCFCFB" stop-opacity="0.70980394"/><stop offset="1" stop-color="white" stop-opacity="0.78823531"/></linearGradient></defs><path fill="url(#gradient_1)" d="M495.129 624.492C496.27 621.782 498.919 618.767 501.28 617.06C505.256 614.189 510.246 613.098 515.058 614.048C520.593 615.11 524.126 617.973 527.198 622.527C526.315 625.014 527.03 628.079 527.426 630.76C524.169 636.472 524.32 636.14 525.092 642.885C522.84 645.218 515.005 644.198 517.634 650.352C513.925 651.866 510.278 651.992 506.504 650.609L506.322 649.996C504.576 648.875 499.503 640.423 495.806 641.653C495.477 641.235 494.924 640.074 494.649 639.544C495.535 634.222 495.9 629.836 495.129 624.492ZM515.866 627.56C518.298 627.874 518.022 628.26 519.583 627.242C520.86 625.058 521.38 621.675 520.01 619.477C517.285 620.501 516.389 620.308 514.163 622.324C513.277 624.932 514.131 625.621 515.866 627.56Z"/><path fill="#FDFDFC" fill-opacity="0.63921571" d="M520.01 619.477C521.38 621.675 520.86 625.058 519.583 627.242C518.022 628.26 518.298 627.874 515.866 627.56C514.131 625.621 513.277 624.932 514.163 622.324C516.389 620.308 517.285 620.501 520.01 619.477Z"/><path fill="#FDFDFC" fill-opacity="0.91764706" d="M527.426 630.76C527.03 628.079 526.315 625.014 527.198 622.527C530.144 627.83 531.434 632.106 529.541 638.291C528.07 643.053 524.735 647.016 520.295 649.279C519.466 649.692 518.51 650.043 517.634 650.352C515.005 644.198 522.84 645.218 525.092 642.885C524.32 636.14 524.169 636.472 527.426 630.76Z"/><path fill="#FDFDFC" fill-opacity="0.54509807" d="M495.806 641.653C499.503 640.423 504.576 648.875 506.322 649.996L506.504 650.609C501.459 649.143 498.504 645.954 495.806 641.653Z"/><path fill="#FDFDFC" fill-opacity="0.56862748" d="M495.129 624.492C495.9 629.836 495.535 634.222 494.649 639.544C494.399 638.955 494.168 638.357 493.957 637.753C492.325 632.989 492.893 628.887 495.129 624.492Z"/><path fill="#90151F" d="M498.262 823.222C507.463 822.671 519.357 822.696 528.546 823.234C563.617 825.289 595.481 861.014 592.665 896.008C580.645 895.878 568.624 895.814 556.603 895.819C553.801 876.643 545.496 863.432 525.02 860.671C520.548 860.433 515.552 860.733 511.241 860.474C495.74 859.545 482.789 861.819 473.512 875.467C468.545 882.776 467.895 887.599 466.209 896.001C459.787 895.932 437.023 896.409 431.848 895.734C429.666 893.519 431.177 885.425 431.581 882.211C434.827 856.353 454.536 834.571 478.958 826.477C485.549 824.293 491.428 823.735 498.262 823.222Z"/><path fill="#F3751E" d="M494.197 275.659L499.582 275.131L499.637 282.548L499.571 308.442C493.46 310.213 487.526 312.544 481.843 315.405C461.951 325.648 445.39 342.909 438.841 364.576C438.146 366.873 437.376 369.165 436.641 371.452C411.757 371.91 386.668 371.238 361.76 371.542C353.016 371.649 344.106 371.636 335.371 371.437C334.475 369.134 333.227 363.775 332.416 361.063C329.447 351.133 324.95 344.022 318.323 336.208C315.211 332.538 310.07 329.166 307.667 325.952L308.006 325.441C310.966 324.838 313.38 325.293 316.333 325.329C334.517 325.552 353.302 325.901 371.427 325.084C371.779 332.003 371.59 340.501 371.593 347.538C376.832 347.957 384.018 347.514 389.457 347.603C394.935 347.693 401.114 347.957 406.49 347.636C406.508 341.284 406.111 336.037 406.419 329.492C429.487 328.051 419.86 333.57 433.309 314.897C447.664 294.966 470.294 281.547 494.197 275.659Z"/><path fill="#F3751E" d="M754.799 335.407C780.596 332.791 803.598 351.661 806.075 377.471C808.551 403.282 789.558 426.181 763.734 428.518C738.107 430.838 715.42 412.02 712.962 386.406C710.504 360.792 729.199 338.004 754.799 335.407Z"/><path fill="#F3751E" d="M260.138 335.413C285.775 333.279 308.311 352.278 310.543 377.906C312.775 403.535 293.864 426.143 268.244 428.474C242.485 430.818 219.725 411.781 217.481 386.012C215.236 360.244 234.361 337.558 260.138 335.413Z"/><path fill="#F3751E" d="M506.787 94.9093C532.54 92.0972 555.656 110.798 558.285 136.571C560.914 162.343 542.049 185.326 516.258 187.771C490.725 190.191 468.023 171.556 465.421 146.042C462.819 120.527 481.292 97.6932 506.787 94.9093Z"/><path fill="#90151F" d="M509.097 731.83C531.583 730.232 551.159 747.043 552.978 769.512C554.797 791.98 538.178 811.721 515.728 813.76C492.965 815.828 472.888 798.926 471.044 776.143C469.2 753.36 486.297 733.45 509.097 731.83Z"/><path fill="#90151F" d="M403.721 732.148C426.068 729.022 446.751 744.514 450.036 766.838C453.32 789.163 437.976 809.955 415.675 813.398C393.15 816.875 372.102 801.342 368.784 778.793C365.466 756.243 381.148 735.306 403.721 732.148Z"/><path fill="#90151F" d="M611.571 731.892C634.182 730.276 653.81 747.325 655.374 769.94C656.938 792.555 639.844 812.144 617.226 813.656C594.68 815.164 575.169 798.137 573.609 775.595C572.05 753.053 589.032 733.503 611.571 731.892Z"/><path fill="#90151F" d="M390.247 823.187C403.449 822.358 417.468 823.294 430.77 822.902C437.281 822.71 443.385 824.042 449.488 826.237C432.398 837.967 427.625 842.799 418.199 861.299C398.941 859.459 379.563 858.507 368.125 876.724C364.174 882.923 363.759 888.964 362.355 896.045C350.608 895.81 338.816 896.107 327.17 895.82C324.303 858.366 353.559 826.848 390.247 823.187Z"/><path fill="#90151F" d="M592.212 823.198C594.396 823.095 596.539 823.1 598.723 823.109C628.836 823.226 652.87 819.396 676.204 842.985C691.094 858.037 698.029 875.09 698.006 895.995C693.15 896.072 688.004 895.941 683.125 895.899C676.116 895.838 669.01 895.931 661.993 895.968C660.597 886.515 659.004 879.386 652.7 871.894C639.944 856.736 623.591 861.865 607.151 860.432L606.481 860.37C594.1 842.676 593.812 839.999 574.895 826.998C582.212 824.521 584.403 823.877 592.212 823.198Z"/><path fill="#2F9ADC" d="M405.341 394.478C413.18 394.39 428.624 394.307 436.643 395.068C438.462 395.241 440.404 404.03 441.601 406.693C454.169 434.656 472.571 447.754 499.446 458.913C499.954 470.51 499.922 483.466 500.069 495.167C500.081 497.16 500.318 499.738 499.564 501.491L498.576 501.985C485.892 500.724 470.661 502.81 458.701 501.498C458.188 491.922 458.707 481.367 458.248 471.382C456.045 469.165 453.588 467.518 451.07 465.58C432.995 451.669 417.052 433.285 409.339 411.573C407.149 405.407 405.45 400.806 405.341 394.478Z"/><path fill="#90151F" d="M453.245 180.4C467.298 196.851 474.406 203.715 496.096 208.854L500.073 209.749C500.071 213.632 499.948 218.277 500.122 222.098C500.102 225.897 500.577 247.507 499.316 249.475C487.537 250.152 464.785 260.053 453.535 265.196C453.162 242.829 453.756 220.328 453.407 197.95C453.315 192.084 453.063 186.267 453.245 180.4Z"/><path fill="#2F9ADC" d="M570.53 180.791C569.926 190.523 570.217 201.869 570.25 211.72L570.883 265.459C566.762 263.654 561.896 261.369 557.75 259.797L556.009 258.676C554.203 258.279 550.941 256.867 549.089 256.14L544.555 254.573L538.367 252.402L537.123 251.914L532.256 250.793C529.702 250.253 526.385 250.085 524.686 248.59C523.621 246.942 523.915 245.543 523.96 243.527C524.32 233.574 523.778 220.567 523.696 210.241L528.93 208.902L532.47 207.97C535.179 207.086 537.055 206.361 539.661 205.274C549.057 200.964 555.261 196.9 562.477 189.275C564.903 186.71 568.068 183.05 570.53 180.791Z"/><path fill="#90151F" d="M651.045 394.575C662.748 394.54 678.682 394.037 690.049 394.655C697.411 419.532 700.532 425.959 722.363 442.23C714.711 442.436 706.899 441.985 699.142 442.085C683.323 442.29 667.098 442.673 651.287 442.383C650.82 426.853 651.073 410.191 651.045 394.575Z"/><path fill="#2F9ADC" d="M524.276 274.226C530.498 274.858 536.28 276.282 542.322 277.849C545.368 279.143 548.547 280.555 551.641 281.682C572.408 292.003 589.285 308.758 599.755 329.45C593.729 330.249 576.605 333.664 572.705 338.257C558.261 320.193 546.741 313.469 524.991 307.317C524.123 305.87 524.383 305.052 524.329 303.174C524.461 293.525 524.443 283.874 524.276 274.226Z"/><path fill="#2F9ADC" d="M334.354 394.638C336.966 394.485 339.587 394.529 342.201 394.603C351.436 394.867 360.68 394.329 369.913 394.552C370.735 399.752 370.42 408.203 370.432 413.744C370.511 423.316 370.515 432.889 370.442 442.461C360.775 441.635 347.924 441.983 338.125 442.057C325.574 442.092 313.022 442.216 300.473 442.43C313.543 433.16 323.767 424.56 329.505 409.021C331.049 404.839 332.33 398.269 334.354 394.638Z"/><path fill="#2F9ADC" d="M651.678 325.546C655.232 325.5 658.947 325.537 662.502 325.622C680.809 326.065 699.458 325.062 717.731 325.67C706.29 336.088 703.118 337.358 695.272 351.817C691.684 358.915 690.729 364.179 688.04 371.443C676.153 371.486 663.366 371.928 651.599 371.681C651.983 356.578 651.115 340.12 651.678 325.546Z"/><path fill="#F3751E" d="M599.755 329.45C606.681 329.454 618.952 329.758 625.436 329.196L624.917 371.229C613.115 371.077 599.091 371.861 587.901 371.424C585.383 364.456 584.895 360.29 581.588 353.164C578.607 346.739 575.465 343.327 572.705 338.257C576.605 333.664 593.729 330.249 599.755 329.45Z"/><path fill="#FDFDFC" fill-opacity="0.66274512" d="M517.426 220.081C516.726 226.891 508.863 225.591 507.116 230.437C507.173 232.67 507.011 233.515 507.962 235.453C509.948 237.127 512.006 235.383 513.697 237.22C516.737 240.521 517.006 245.274 516.722 249.522C516.598 251.914 515.776 253.821 516.841 255.654L517.464 255.664C518.08 254.008 518.652 252.336 519.181 250.65L519.27 251.218C519.559 252.987 519.519 253.452 520.573 254.931C522.638 256.355 523.744 256.412 526.145 255.988L529.191 256.47C528.385 256.73 527.445 256.9 526.898 257.427C530.238 257.43 532.207 258.944 535.226 258.482C538.3 258.011 539.261 255.01 538.367 252.402L544.555 254.573C542.475 254.418 541.633 253.985 540.074 254.77C540.518 257.145 539.674 258.825 540.612 260.87C544.648 264.071 547.949 261.143 549.608 257.113L549.089 256.14C550.941 256.867 554.203 258.279 556.009 258.676L555.874 259.323C555.131 263.027 555.987 266.124 554.209 269.136C552.788 271.542 550.753 276.291 548.509 277.926C546.302 277.505 544.404 276.922 542.322 277.849C536.28 276.282 530.498 274.858 524.276 274.226C524.443 283.874 524.461 293.525 524.329 303.174C523.91 295.854 524.972 283.855 523.677 277.356L522.533 277.72C520.978 277.33 516.851 272.61 514.329 270.605C511.538 270.476 507.705 270.645 504.843 270.696C501.748 278.254 500.201 271.908 499.637 282.548L499.582 275.131L494.197 275.659C495.15 270.812 495.058 270.206 494.223 265.5C495.146 263.481 495.911 261.738 496.541 259.58C497.594 255.975 496.88 252.379 499.316 249.475C500.577 247.507 500.102 225.897 500.122 222.098L500.491 222.023L500.579 230.413L500.798 230.281L500.523 229.545L501.065 229.343C501.115 227.342 501.36 226.616 501.973 224.689L502.029 233.276C502.067 234.51 501.637 236.643 501.745 237.21L502.708 236.86C503.564 235.408 503.334 234.467 503.286 232.74L503.262 232.022C504.061 233.459 505.049 241.24 505.15 243.265L505.641 243.135L506.289 240.361C507.709 239.882 507.608 239.843 509.03 240.276C511.487 242.256 511.56 244.992 512.129 248.081L512.822 247.962C516.534 240.93 509.622 239.868 506.547 235.954C505.728 234.912 505.356 231.638 505.9 230.362C508.266 224.817 513.448 224.922 517.426 220.081Z"/><path fill="#FDFDFC" fill-opacity="0.63529414" d="M531.403 562.366L532.335 562.69C529.904 563.322 528.778 563.066 528.145 565.86C530.235 569.62 534.89 567.009 535.855 564.071C549.191 570.054 558.157 577.766 566.042 590.181L564.886 591.315C563.025 592.029 559.742 593.239 558.604 594.712C558.033 598.191 560.777 601.253 562.01 606.623C561.016 606.682 555.255 606.844 554.721 607.015C553.462 605.887 550.131 600.848 548.129 598.951C535.194 586.694 523.25 584.19 506.4 584.415L506.98 583.882C508.799 584.07 511.705 583.88 513.617 583.816L512.451 583.982C515.164 581.912 515.977 582.477 517.523 579.306C520.514 573.168 519.708 574.491 525.292 572.774C525.785 572.623 525.615 571.401 525.641 570.57C526.574 570.983 527.502 571.351 528.447 571.734C529.637 571.589 534.892 567.868 535.508 567.041C532.271 568.423 530.106 570.143 527.383 567.14C526.666 563.257 528.243 562.767 531.403 562.366Z"/><defs><linearGradient id="gradient_2" gradientUnits="userSpaceOnUse" x1="531.31189" y1="210.27417" x2="508.30002" y2="191.95709"><stop offset="0" stop-color="#FEFCFB" stop-opacity="0.29019609"/><stop offset="1" stop-color="white" stop-opacity="0.41960785"/></linearGradient></defs><path fill="url(#gradient_2)" d="M496.096 208.854C502.621 205.675 490.646 196.02 519.745 189.367C526.922 193.495 534.586 187.174 541.215 193.826L541.043 194.246L539.869 194.143C540.435 196.433 540.446 197.13 540.506 199.507C536.93 201.202 537.522 204.499 533.612 205.192C530.964 205.662 528.714 202.55 525.824 202.616L525.08 203.418C521.997 203.924 521.914 203.453 519.561 201.455C507.652 206.653 520.197 215.343 507.641 220.152C506.427 222.081 502.836 230.852 502.029 233.276L501.973 224.689C503.819 222.105 504.61 218.715 505.313 215.645C505.934 212.937 503.693 209.524 500.902 209.698C500.029 211.797 500.444 219.435 500.491 222.023L500.122 222.098C499.948 218.277 500.071 213.632 500.073 209.749L496.096 208.854ZM511.272 201.552L510.982 201.285C522.294 200.783 517.144 198.055 521.895 194.706C521.246 194.508 520.254 194.362 519.992 193.975C515.976 194.567 511.659 194.644 508.73 197.287C507.877 199.258 508.026 198.256 508.296 200.41C509.284 201.748 509.166 201.834 510.701 202.353C511.305 201.79 511.196 202.099 511.272 201.552Z"/><path fill="#FDFDFC" fill-opacity="0.48627451" d="M519.992 193.975C520.254 194.362 521.246 194.508 521.895 194.706C517.144 198.055 522.294 200.783 510.982 201.285L511.272 201.552C511.196 202.099 511.305 201.79 510.701 202.353C509.166 201.834 509.284 201.748 508.296 200.41C508.026 198.256 507.877 199.258 508.73 197.287C511.659 194.644 515.976 194.567 519.992 193.975Z"/><path fill="#FDFDFC" fill-opacity="0.68627453" d="M517.426 220.081C517.425 220.029 517.425 219.978 517.424 219.927C518.731 216.423 515.585 212.039 518.086 209.125C519.55 207.42 523.716 207.062 525.818 206.667C526.906 206.462 528.156 208.053 528.93 208.902L523.696 210.241C523.778 220.567 524.32 233.574 523.96 243.527C519.029 245.568 518.343 254.688 525.873 255.574L526.145 255.988C523.744 256.412 522.638 256.355 520.573 254.931C519.519 253.452 519.559 252.987 519.27 251.218L519.181 250.65C518.652 252.336 518.08 254.008 517.464 255.664L516.841 255.654C515.776 253.821 516.598 251.914 516.722 249.522C517.006 245.274 516.737 240.521 513.697 237.22C512.006 235.383 509.948 237.127 507.962 235.453C507.011 233.515 507.173 232.67 507.116 230.437C508.863 225.591 516.726 226.891 517.426 220.081Z"/><path fill="#FDFDFC" fill-opacity="0.29411766" d="M523.103 539.759C523.524 546.136 523.474 553.563 523.382 560.011C521.823 561.566 520.132 563.752 520.043 566.014C521.392 569.045 522.3 568.927 525.641 570.57C525.615 571.401 525.785 572.623 525.292 572.774C519.708 574.491 520.514 573.168 517.523 579.306C515.977 582.477 515.164 581.912 512.451 583.982L513.617 583.816C511.705 583.88 508.799 584.07 506.98 583.882L506.883 583.61C506.224 583.165 503.848 578.959 502.618 577.468C503.023 576.41 504.467 567.093 504.234 566.403L503.539 566.135L503.447 568.014C502.438 567.975 502.765 567.836 501.646 566.702C502.238 566.098 502.697 565.643 503.332 565.073L503.866 564.599L503.857 564.603C503.842 565.749 503.628 565.678 504.081 566.386L504.992 566.44L505.456 564.912C506.698 564.314 507.551 564.966 509.326 565.485C512.75 564.456 518.107 561.958 520.696 559.555L522.411 559.849C523.654 558.365 522.884 543.505 523.103 539.759Z"/><path fill="#FDFDFC" fill-opacity="0.20784314" d="M463.976 617.21C461.243 616.035 460.654 616.494 458.406 615.491C457.821 614.693 457.187 613.701 457.477 612.526C459.738 603.346 467.785 589.987 474.888 583.632C477.488 581.028 482.698 580.743 486.279 580.656C489.793 580.572 488.239 587.604 487.956 589.374L486.268 590.378C485.501 589.488 484.399 588.011 483.193 588.211C474.406 589.667 468.443 594.55 465.592 603.026C465.44 603.478 460.574 604.695 461.247 606.572C461.587 608.509 462.698 612.826 464.4 613.927C465.237 612.378 465.922 610.506 467.221 609.679C466.156 612.092 464.901 614.768 463.976 617.21Z"/><path fill="#FDFDFC" fill-opacity="0.49019608" d="M507.641 220.152C520.197 215.343 507.652 206.653 519.561 201.455C521.914 203.453 521.997 203.924 525.08 203.418C524.146 202.5 532.898 208.207 532.47 207.97L528.93 208.902C528.156 208.053 526.906 206.462 525.818 206.667C523.716 207.062 519.55 207.42 518.086 209.125C515.585 212.039 518.731 216.423 517.424 219.927C517.425 219.978 517.425 220.029 517.426 220.081C513.448 224.922 508.266 224.817 505.9 230.362C505.356 231.638 505.728 234.912 506.547 235.954C509.622 239.868 516.534 240.93 512.822 247.962L512.129 248.081C511.56 244.992 511.487 242.256 509.03 240.276C507.608 239.843 507.709 239.882 506.289 240.361L505.641 243.135L505.15 243.265C505.049 241.24 504.061 233.459 503.262 232.022L503.286 232.74C503.334 234.467 503.564 235.408 502.708 236.86L501.745 237.21C501.637 236.643 502.067 234.51 502.029 233.276C502.836 230.852 506.427 222.081 507.641 220.152Z"/><path fill="#FDFDFC" fill-opacity="0.33333334" d="M467.221 609.679C465.922 610.506 465.237 612.378 464.4 613.927C462.698 612.826 461.587 608.509 461.247 606.572C460.574 604.695 465.44 603.478 465.592 603.026C468.443 594.55 474.406 589.667 483.193 588.211C484.399 588.011 485.501 589.488 486.268 590.378C480.406 594.295 475.797 597.23 471.763 603.143C470.994 604.27 467.962 608.921 467.221 609.679Z"/><path fill="#FDFDFC" fill-opacity="0.62352943" d="M556.009 258.676L557.75 259.797C560.439 268.964 563.699 278.239 551.641 281.682C548.547 280.555 545.368 279.143 542.322 277.849C544.404 276.922 546.302 277.505 548.509 277.926C550.753 276.291 552.788 271.542 554.209 269.136C555.987 266.124 555.131 263.027 555.874 259.323L556.009 258.676Z"/><path fill="#FDFDFC" fill-opacity="0.10196079" d="M500.069 495.167C501.396 496.927 500.303 499.524 500.68 502.369L500.344 503.297C502.067 504.455 506.123 503.856 508.258 503.478C510.363 503.437 510.668 503.548 512.753 504.047L512.721 504.681C511.22 504.741 510.237 504.809 508.749 504.984C510.928 506.954 512.478 513.759 511.782 516.922L510.603 515.966C510.535 517.373 510.286 516.829 511.041 517.759L512.609 517.632L513.821 519.053L513.351 519.494L510.702 519.185L510.814 519.709C511.952 520.004 516.082 519.923 517.899 520.118L517.723 520.641C516.723 520.724 516.429 520.755 515.457 520.991L517.159 521.645C516.408 522.512 515.657 523.374 514.952 524.279C513.613 523.19 513.573 523.105 511.936 522.337C508.649 523.346 511.668 529.592 507.968 535.57L507.426 535.39C506.971 533.911 509.381 527.713 509.845 524.295C505.592 516.666 507.235 515.718 506.838 506.985C506.008 506.223 502.384 506.562 500.643 506.502C499.079 505.497 498.929 505.083 497.919 503.57L498.172 502.493L498.576 501.985L499.564 501.491C500.318 499.738 500.081 497.16 500.069 495.167Z"/><path fill="#FDFDFC" fill-opacity="0.56078434" d="M562.01 606.623C560.777 601.253 558.033 598.191 558.604 594.712C559.742 593.239 563.025 592.029 564.886 591.315L564.975 591.829C560.52 597.646 568 612.442 560.782 614.87L558.816 614.274C557.965 613.441 555.449 608.396 554.721 607.015C555.255 606.844 561.016 606.682 562.01 606.623Z"/><path fill="#FDFDFC" fill-opacity="0.49019608" d="M523.382 560.011C526.209 560.75 528.651 561.362 531.403 562.366C528.243 562.767 526.666 563.257 527.383 567.14C530.106 570.143 532.271 568.423 535.508 567.041C534.892 567.868 529.637 571.589 528.447 571.734C527.502 571.351 526.574 570.983 525.641 570.57C522.3 568.927 521.392 569.045 520.043 566.014C520.132 563.752 521.823 561.566 523.382 560.011Z"/><path fill="#FDFDFC" fill-opacity="0.30588236" d="M507.207 489.491C507.405 488.015 507.685 484.66 508.642 483.66C508.794 489.463 509.196 495.21 509.9 500.971C509.933 501.24 508.584 503.111 508.258 503.478C506.123 503.856 502.067 504.455 500.344 503.297L500.68 502.369C501.515 500.942 501.3 498.07 501.32 496.271C504.076 493.427 503.519 491.825 503.924 487.764L504.006 488.411C504.568 493.109 502.896 498.497 504.393 500.83C505.431 500.177 505.973 499.994 507.153 499.649C509.62 496.87 507.169 493.171 507.207 489.491Z"/><path fill="#FDFDFC" fill-opacity="0.019607844" d="M500.491 222.023C500.444 219.435 500.029 211.797 500.902 209.698C503.693 209.524 505.934 212.937 505.313 215.645C504.61 218.715 503.819 222.105 501.973 224.689C501.36 226.616 501.115 227.342 501.065 229.343L500.523 229.545L500.798 230.281L500.579 230.413L500.491 222.023Z"/><path fill="#FDFDFC" fill-opacity="0.79215688" d="M549.089 256.14L549.608 257.113C547.949 261.143 544.648 264.071 540.612 260.87C539.674 258.825 540.518 257.145 540.074 254.77C541.633 253.985 542.475 254.418 544.555 254.573L549.089 256.14Z"/><path fill="#FDFDFC" fill-opacity="0.90588236" d="M525.873 255.574C518.343 254.688 519.029 245.568 523.96 243.527C523.915 245.543 523.621 246.942 524.686 248.59C526.385 250.085 529.702 250.253 532.256 250.793C529.699 251.414 527.786 252.054 525.975 254.022C525.886 254.705 525.802 254.9 525.873 255.574Z"/><path fill="#FDFDFC" fill-opacity="0.98431373" d="M532.256 250.793L537.123 251.914C534.365 255.785 534.333 256.849 529.191 256.47L526.145 255.988L525.873 255.574C525.802 254.9 525.886 254.705 525.975 254.022C527.786 252.054 529.699 251.414 532.256 250.793Z"/><path fill="#FDFDFC" fill-opacity="0.33333334" d="M504.566 484.412C504.635 486.267 504.644 488.784 504.898 490.562C505.165 489.8 505.302 489.796 505.826 489.207C506.88 489.217 506.429 489.082 507.207 489.491C507.169 493.171 509.62 496.87 507.153 499.649C505.973 499.994 505.431 500.177 504.393 500.83C502.896 498.497 504.568 493.109 504.006 488.411L503.924 487.764C503.985 486.98 504.393 485.26 504.566 484.412Z"/><path fill="#FDFDFC" fill-opacity="0.2" d="M501.229 480.592C502.383 478.952 502.025 478.88 503.542 478.379C504.593 480.713 503.576 482.146 504.566 484.412C504.393 485.26 503.985 486.98 503.924 487.764C503.519 491.825 504.076 493.427 501.32 496.271C501.189 491.189 501.256 485.705 501.229 480.592Z"/><path fill="#FDFDFC" fill-opacity="0.21568628" d="M525.08 203.418L525.824 202.616C528.714 202.55 530.964 205.662 533.612 205.192C537.522 204.499 536.93 201.202 540.506 199.507C540.651 202.145 539.892 202.9 539.661 205.274C537.055 206.361 535.179 207.086 532.47 207.97C532.898 208.207 524.146 202.5 525.08 203.418Z"/><path fill="#FDFDFC" fill-opacity="0.78039217" d="M537.123 251.914L538.367 252.402C539.261 255.01 538.3 258.011 535.226 258.482C532.207 258.944 530.238 257.43 526.898 257.427C527.445 256.9 528.385 256.73 529.191 256.47C534.333 256.849 534.365 255.785 537.123 251.914Z"/><path fill="#FDFDFC" fill-opacity="0.66274512" d="M532.335 562.69L535.855 564.071C534.89 567.009 530.235 569.62 528.145 565.86C528.778 563.066 529.904 563.322 532.335 562.69Z"/></svg>